<mxfile host="app.diagrams.net" modified="2021-06-06T19:33:36.225Z" agent="5.0 (Windows NT 10.0; Win64; x64) AppleWebKit/537.36 (KHTML, like Gecko) Chrome/91.0.4472.77 Safari/537.36" etag="UTEiP4Kur6_SgoCIg1_7" version="14.7.6" type="github">
  <diagram id="IshGgHoh9PqC3vJ7O7cH" name="Page-1">
    <mxGraphModel dx="1008" dy="579" grid="1" gridSize="10" guides="1" tooltips="1" connect="1" arrows="1" fold="1" page="1" pageScale="1" pageWidth="850" pageHeight="1100" math="0" shadow="0">
      <root>
        <mxCell id="0" />
        <mxCell id="1" parent="0" />
        <mxCell id="iyTL14flEjv7qD_78qFV-7" value="&lt;font style=&quot;font-size: 12px&quot;&gt;1&lt;/font&gt;" style="ellipse;whiteSpace=wrap;html=1;aspect=fixed;" vertex="1" parent="1">
          <mxGeometry x="210" y="20" width="70" height="70" as="geometry" />
        </mxCell>
        <mxCell id="iyTL14flEjv7qD_78qFV-8" value="&lt;font style=&quot;font-size: 12px&quot;&gt;3&lt;/font&gt;" style="ellipse;whiteSpace=wrap;html=1;aspect=fixed;" vertex="1" parent="1">
          <mxGeometry x="400" y="130" width="70" height="70" as="geometry" />
        </mxCell>
        <mxCell id="iyTL14flEjv7qD_78qFV-9" value="&lt;font style=&quot;font-size: 12px&quot;&gt;2&lt;/font&gt;" style="ellipse;whiteSpace=wrap;html=1;aspect=fixed;fontSize=22;" vertex="1" parent="1">
          <mxGeometry x="210" y="230" width="70" height="70" as="geometry" />
        </mxCell>
        <mxCell id="iyTL14flEjv7qD_78qFV-10" value="&lt;font style=&quot;font-size: 12px&quot;&gt;6&lt;/font&gt;" style="ellipse;whiteSpace=wrap;html=1;aspect=fixed;fontSize=22;" vertex="1" parent="1">
          <mxGeometry x="400" y="380" width="70" height="70" as="geometry" />
        </mxCell>
        <mxCell id="iyTL14flEjv7qD_78qFV-114" value="digit" style="edgeStyle=orthogonalEdgeStyle;rounded=0;orthogonalLoop=1;jettySize=auto;html=1;entryX=0;entryY=0.5;entryDx=0;entryDy=0;fontSize=22;" edge="1" parent="1" source="iyTL14flEjv7qD_78qFV-11" target="iyTL14flEjv7qD_78qFV-59">
          <mxGeometry relative="1" as="geometry" />
        </mxCell>
        <mxCell id="iyTL14flEjv7qD_78qFV-11" value="7" style="ellipse;whiteSpace=wrap;html=1;aspect=fixed;gradientColor=none;" vertex="1" parent="1">
          <mxGeometry x="600" y="380" width="70" height="70" as="geometry" />
        </mxCell>
        <mxCell id="iyTL14flEjv7qD_78qFV-12" value="8" style="ellipse;whiteSpace=wrap;html=1;aspect=fixed;" vertex="1" parent="1">
          <mxGeometry x="770" y="380" width="70" height="70" as="geometry" />
        </mxCell>
        <mxCell id="iyTL14flEjv7qD_78qFV-13" value="4" style="ellipse;whiteSpace=wrap;html=1;aspect=fixed;gradientColor=none;" vertex="1" parent="1">
          <mxGeometry x="210" y="540" width="70" height="70" as="geometry" />
        </mxCell>
        <mxCell id="iyTL14flEjv7qD_78qFV-14" value="5" style="ellipse;whiteSpace=wrap;html=1;aspect=fixed;gradientColor=none;" vertex="1" parent="1">
          <mxGeometry x="400" y="680" width="70" height="70" as="geometry" />
        </mxCell>
        <mxCell id="iyTL14flEjv7qD_78qFV-15" value="9" style="ellipse;whiteSpace=wrap;html=1;aspect=fixed;gradientColor=none;" vertex="1" parent="1">
          <mxGeometry x="210" y="840" width="70" height="70" as="geometry" />
        </mxCell>
        <mxCell id="iyTL14flEjv7qD_78qFV-17" value="10" style="ellipse;whiteSpace=wrap;html=1;aspect=fixed;gradientColor=none;" vertex="1" parent="1">
          <mxGeometry x="210" y="960" width="70" height="70" as="geometry" />
        </mxCell>
        <mxCell id="iyTL14flEjv7qD_78qFV-18" value="11" style="ellipse;whiteSpace=wrap;html=1;aspect=fixed;gradientColor=none;" vertex="1" parent="1">
          <mxGeometry x="210" y="1110" width="70" height="70" as="geometry" />
        </mxCell>
        <mxCell id="iyTL14flEjv7qD_78qFV-19" value="12" style="ellipse;whiteSpace=wrap;html=1;aspect=fixed;gradientColor=none;" vertex="1" parent="1">
          <mxGeometry x="210" y="1240" width="70" height="70" as="geometry" />
        </mxCell>
        <mxCell id="iyTL14flEjv7qD_78qFV-20" value="13" style="ellipse;whiteSpace=wrap;html=1;aspect=fixed;gradientColor=none;" vertex="1" parent="1">
          <mxGeometry x="210" y="1400" width="70" height="70" as="geometry" />
        </mxCell>
        <mxCell id="iyTL14flEjv7qD_78qFV-21" value="0" style="ellipse;whiteSpace=wrap;html=1;aspect=fixed;gradientColor=none;" vertex="1" parent="1">
          <mxGeometry y="1510" width="70" height="70" as="geometry" />
        </mxCell>
        <mxCell id="iyTL14flEjv7qD_78qFV-22" value="" style="ellipse;whiteSpace=wrap;html=1;aspect=fixed;gradientColor=none;fillColor=none;" vertex="1" parent="1">
          <mxGeometry x="200" y="10" width="90" height="90" as="geometry" />
        </mxCell>
        <mxCell id="iyTL14flEjv7qD_78qFV-24" value="" style="ellipse;whiteSpace=wrap;html=1;aspect=fixed;gradientColor=none;fillColor=none;" vertex="1" parent="1">
          <mxGeometry x="390" y="120" width="90" height="90" as="geometry" />
        </mxCell>
        <mxCell id="iyTL14flEjv7qD_78qFV-25" value="" style="ellipse;whiteSpace=wrap;html=1;aspect=fixed;gradientColor=none;fillColor=none;" vertex="1" parent="1">
          <mxGeometry x="200" y="220" width="90" height="90" as="geometry" />
        </mxCell>
        <mxCell id="iyTL14flEjv7qD_78qFV-113" value="&amp;nbsp; .&amp;nbsp;&amp;nbsp;" style="edgeStyle=orthogonalEdgeStyle;rounded=0;orthogonalLoop=1;jettySize=auto;html=1;exitX=1;exitY=0.5;exitDx=0;exitDy=0;entryX=0;entryY=0.5;entryDx=0;entryDy=0;fontSize=22;" edge="1" parent="1" source="iyTL14flEjv7qD_78qFV-26" target="iyTL14flEjv7qD_78qFV-11">
          <mxGeometry relative="1" as="geometry" />
        </mxCell>
        <mxCell id="iyTL14flEjv7qD_78qFV-26" value="" style="ellipse;whiteSpace=wrap;html=1;aspect=fixed;gradientColor=none;fillColor=none;" vertex="1" parent="1">
          <mxGeometry x="390" y="370" width="90" height="90" as="geometry" />
        </mxCell>
        <mxCell id="iyTL14flEjv7qD_78qFV-120" style="edgeStyle=none;rounded=0;orthogonalLoop=1;jettySize=auto;html=1;entryX=0;entryY=0.5;entryDx=0;entryDy=0;fontSize=22;" edge="1" parent="1" source="iyTL14flEjv7qD_78qFV-27" target="iyTL14flEjv7qD_78qFV-66">
          <mxGeometry relative="1" as="geometry" />
        </mxCell>
        <mxCell id="iyTL14flEjv7qD_78qFV-135" value="&amp;nbsp;&amp;amp;&amp;nbsp;" style="edgeLabel;html=1;align=center;verticalAlign=middle;resizable=0;points=[];fontSize=22;" vertex="1" connectable="0" parent="iyTL14flEjv7qD_78qFV-120">
          <mxGeometry x="-0.2896" y="-2" relative="1" as="geometry">
            <mxPoint as="offset" />
          </mxGeometry>
        </mxCell>
        <mxCell id="iyTL14flEjv7qD_78qFV-27" value="14" style="ellipse;whiteSpace=wrap;html=1;aspect=fixed;gradientColor=none;" vertex="1" parent="1">
          <mxGeometry x="200" y="1670" width="70" height="70" as="geometry" />
        </mxCell>
        <mxCell id="iyTL14flEjv7qD_78qFV-28" value="15" style="ellipse;whiteSpace=wrap;html=1;aspect=fixed;gradientColor=none;" vertex="1" parent="1">
          <mxGeometry x="530" y="1670" width="70" height="70" as="geometry" />
        </mxCell>
        <mxCell id="iyTL14flEjv7qD_78qFV-122" value="&amp;nbsp; |&amp;nbsp;&amp;nbsp;" style="edgeStyle=none;rounded=0;orthogonalLoop=1;jettySize=auto;html=1;fontSize=22;" edge="1" parent="1" source="iyTL14flEjv7qD_78qFV-29" target="iyTL14flEjv7qD_78qFV-67">
          <mxGeometry relative="1" as="geometry" />
        </mxCell>
        <mxCell id="iyTL14flEjv7qD_78qFV-29" value="16" style="ellipse;whiteSpace=wrap;html=1;aspect=fixed;gradientColor=none;" vertex="1" parent="1">
          <mxGeometry x="200" y="1840" width="70" height="70" as="geometry" />
        </mxCell>
        <mxCell id="iyTL14flEjv7qD_78qFV-30" value="17" style="ellipse;whiteSpace=wrap;html=1;aspect=fixed;gradientColor=none;" vertex="1" parent="1">
          <mxGeometry x="530" y="1840" width="70" height="70" as="geometry" />
        </mxCell>
        <mxCell id="iyTL14flEjv7qD_78qFV-31" value="18" style="ellipse;whiteSpace=wrap;html=1;aspect=fixed;gradientColor=none;" vertex="1" parent="1">
          <mxGeometry x="210" y="2000" width="70" height="70" as="geometry" />
        </mxCell>
        <mxCell id="iyTL14flEjv7qD_78qFV-32" value="&lt;font style=&quot;font-size: 12px&quot;&gt;19&lt;/font&gt;" style="ellipse;whiteSpace=wrap;html=1;aspect=fixed;fontSize=22;fillColor=none;gradientColor=none;" vertex="1" parent="1">
          <mxGeometry x="210" y="2160" width="70" height="70" as="geometry" />
        </mxCell>
        <mxCell id="iyTL14flEjv7qD_78qFV-124" value="&amp;nbsp;\n&amp;nbsp;" style="edgeStyle=none;rounded=0;orthogonalLoop=1;jettySize=auto;html=1;entryX=0;entryY=0.5;entryDx=0;entryDy=0;fontSize=22;" edge="1" parent="1" source="iyTL14flEjv7qD_78qFV-33" target="iyTL14flEjv7qD_78qFV-70">
          <mxGeometry relative="1" as="geometry" />
        </mxCell>
        <mxCell id="iyTL14flEjv7qD_78qFV-33" value="20" style="ellipse;whiteSpace=wrap;html=1;aspect=fixed;gradientColor=none;" vertex="1" parent="1">
          <mxGeometry x="530" y="2160" width="70" height="70" as="geometry" />
        </mxCell>
        <mxCell id="iyTL14flEjv7qD_78qFV-34" value="21" style="ellipse;whiteSpace=wrap;html=1;aspect=fixed;gradientColor=none;" vertex="1" parent="1">
          <mxGeometry x="770" y="2160" width="70" height="70" as="geometry" />
        </mxCell>
        <mxCell id="iyTL14flEjv7qD_78qFV-35" value="24" style="ellipse;whiteSpace=wrap;html=1;aspect=fixed;gradientColor=none;" vertex="1" parent="1">
          <mxGeometry x="770" y="2340" width="70" height="70" as="geometry" />
        </mxCell>
        <mxCell id="iyTL14flEjv7qD_78qFV-127" value="&amp;nbsp;/&amp;nbsp;" style="edgeStyle=none;rounded=0;orthogonalLoop=1;jettySize=auto;html=1;entryX=0;entryY=0.5;entryDx=0;entryDy=0;fontSize=22;" edge="1" parent="1" source="iyTL14flEjv7qD_78qFV-36" target="iyTL14flEjv7qD_78qFV-71">
          <mxGeometry relative="1" as="geometry" />
        </mxCell>
        <mxCell id="iyTL14flEjv7qD_78qFV-136" value="&amp;nbsp;E - {* , / }&amp;nbsp;" style="edgeStyle=none;rounded=0;orthogonalLoop=1;jettySize=auto;html=1;entryX=0.406;entryY=1.026;entryDx=0;entryDy=0;entryPerimeter=0;fontSize=22;" edge="1" parent="1" source="iyTL14flEjv7qD_78qFV-36" target="iyTL14flEjv7qD_78qFV-37">
          <mxGeometry relative="1" as="geometry">
            <Array as="points">
              <mxPoint x="565" y="2460" />
              <mxPoint x="338" y="2460" />
            </Array>
          </mxGeometry>
        </mxCell>
        <mxCell id="iyTL14flEjv7qD_78qFV-36" value="23" style="ellipse;whiteSpace=wrap;html=1;aspect=fixed;gradientColor=none;" vertex="1" parent="1">
          <mxGeometry x="530" y="2340" width="70" height="70" as="geometry" />
        </mxCell>
        <mxCell id="iyTL14flEjv7qD_78qFV-126" value="&amp;nbsp;*&amp;nbsp;" style="edgeStyle=none;rounded=0;orthogonalLoop=1;jettySize=auto;html=1;entryX=0;entryY=0.5;entryDx=0;entryDy=0;fontSize=22;" edge="1" parent="1" source="iyTL14flEjv7qD_78qFV-37" target="iyTL14flEjv7qD_78qFV-36">
          <mxGeometry relative="1" as="geometry" />
        </mxCell>
        <mxCell id="iyTL14flEjv7qD_78qFV-37" value="22" style="ellipse;whiteSpace=wrap;html=1;aspect=fixed;gradientColor=none;" vertex="1" parent="1">
          <mxGeometry x="310" y="2340" width="70" height="70" as="geometry" />
        </mxCell>
        <mxCell id="iyTL14flEjv7qD_78qFV-38" value="26" style="ellipse;whiteSpace=wrap;html=1;aspect=fixed;gradientColor=none;" vertex="1" parent="1">
          <mxGeometry x="530" y="2540" width="70" height="70" as="geometry" />
        </mxCell>
        <mxCell id="iyTL14flEjv7qD_78qFV-128" value="&amp;nbsp;&quot;&amp;nbsp;" style="edgeStyle=none;rounded=0;orthogonalLoop=1;jettySize=auto;html=1;entryX=0;entryY=0.5;entryDx=0;entryDy=0;fontSize=22;" edge="1" parent="1" source="iyTL14flEjv7qD_78qFV-39" target="iyTL14flEjv7qD_78qFV-73">
          <mxGeometry relative="1" as="geometry" />
        </mxCell>
        <mxCell id="iyTL14flEjv7qD_78qFV-39" value="25" style="ellipse;whiteSpace=wrap;html=1;aspect=fixed;gradientColor=none;" vertex="1" parent="1">
          <mxGeometry x="200" y="2540" width="70" height="70" as="geometry" />
        </mxCell>
        <mxCell id="iyTL14flEjv7qD_78qFV-40" value="27" style="ellipse;whiteSpace=wrap;html=1;aspect=fixed;gradientColor=none;" vertex="1" parent="1">
          <mxGeometry x="210" y="2760" width="70" height="70" as="geometry" />
        </mxCell>
        <mxCell id="iyTL14flEjv7qD_78qFV-41" value="35" style="ellipse;whiteSpace=wrap;html=1;aspect=fixed;gradientColor=none;" vertex="1" parent="1">
          <mxGeometry x="530" y="3480" width="70" height="70" as="geometry" />
        </mxCell>
        <mxCell id="iyTL14flEjv7qD_78qFV-132" value="&amp;nbsp;=&amp;nbsp;" style="edgeStyle=none;rounded=0;orthogonalLoop=1;jettySize=auto;html=1;entryX=0;entryY=0.5;entryDx=0;entryDy=0;fontSize=22;" edge="1" parent="1" source="iyTL14flEjv7qD_78qFV-42" target="iyTL14flEjv7qD_78qFV-80">
          <mxGeometry relative="1" as="geometry" />
        </mxCell>
        <mxCell id="iyTL14flEjv7qD_78qFV-42" value="34" style="ellipse;whiteSpace=wrap;html=1;aspect=fixed;gradientColor=none;" vertex="1" parent="1">
          <mxGeometry x="200" y="3480" width="70" height="70" as="geometry" />
        </mxCell>
        <mxCell id="iyTL14flEjv7qD_78qFV-43" value="33" style="ellipse;whiteSpace=wrap;html=1;aspect=fixed;gradientColor=none;" vertex="1" parent="1">
          <mxGeometry x="530" y="3310" width="70" height="70" as="geometry" />
        </mxCell>
        <mxCell id="iyTL14flEjv7qD_78qFV-44" value="32" style="ellipse;whiteSpace=wrap;html=1;aspect=fixed;gradientColor=none;" vertex="1" parent="1">
          <mxGeometry x="210" y="3300" width="70" height="70" as="geometry" />
        </mxCell>
        <mxCell id="iyTL14flEjv7qD_78qFV-45" value="31" style="ellipse;whiteSpace=wrap;html=1;aspect=fixed;gradientColor=none;" vertex="1" parent="1">
          <mxGeometry x="530" y="3120" width="70" height="70" as="geometry" />
        </mxCell>
        <mxCell id="iyTL14flEjv7qD_78qFV-46" value="30" style="ellipse;whiteSpace=wrap;html=1;aspect=fixed;gradientColor=none;" vertex="1" parent="1">
          <mxGeometry x="210" y="3120" width="70" height="70" as="geometry" />
        </mxCell>
        <mxCell id="iyTL14flEjv7qD_78qFV-47" value="29" style="ellipse;whiteSpace=wrap;html=1;aspect=fixed;gradientColor=none;" vertex="1" parent="1">
          <mxGeometry x="530" y="2940" width="70" height="70" as="geometry" />
        </mxCell>
        <mxCell id="iyTL14flEjv7qD_78qFV-48" value="28" style="ellipse;whiteSpace=wrap;html=1;aspect=fixed;gradientColor=none;" vertex="1" parent="1">
          <mxGeometry x="210" y="2940" width="70" height="70" as="geometry" />
        </mxCell>
        <mxCell id="iyTL14flEjv7qD_78qFV-49" value="36" style="ellipse;whiteSpace=wrap;html=1;aspect=fixed;gradientColor=none;" vertex="1" parent="1">
          <mxGeometry x="210" y="3660" width="70" height="70" as="geometry" />
        </mxCell>
        <mxCell id="iyTL14flEjv7qD_78qFV-50" value="37" style="ellipse;whiteSpace=wrap;html=1;aspect=fixed;gradientColor=none;" vertex="1" parent="1">
          <mxGeometry x="200" y="3840" width="70" height="70" as="geometry" />
        </mxCell>
        <mxCell id="iyTL14flEjv7qD_78qFV-119" value="&amp;nbsp;-&amp;nbsp;&amp;nbsp;" style="edgeStyle=none;rounded=0;orthogonalLoop=1;jettySize=auto;html=1;entryX=-0.022;entryY=0.58;entryDx=0;entryDy=0;entryPerimeter=0;fontSize=22;exitX=0.427;exitY=1.033;exitDx=0;exitDy=0;exitPerimeter=0;" edge="1" parent="1" source="iyTL14flEjv7qD_78qFV-58" target="iyTL14flEjv7qD_78qFV-60">
          <mxGeometry relative="1" as="geometry">
            <Array as="points">
              <mxPoint x="238" y="722" />
              <mxPoint x="320" y="722" />
            </Array>
          </mxGeometry>
        </mxCell>
        <mxCell id="iyTL14flEjv7qD_78qFV-58" value="" style="ellipse;whiteSpace=wrap;html=1;aspect=fixed;gradientColor=none;fillColor=none;" vertex="1" parent="1">
          <mxGeometry x="200" y="530" width="90" height="90" as="geometry" />
        </mxCell>
        <mxCell id="iyTL14flEjv7qD_78qFV-59" value="" style="ellipse;whiteSpace=wrap;html=1;aspect=fixed;fillColor=none;" vertex="1" parent="1">
          <mxGeometry x="760" y="370" width="90" height="90" as="geometry" />
        </mxCell>
        <mxCell id="iyTL14flEjv7qD_78qFV-60" value="" style="ellipse;whiteSpace=wrap;html=1;aspect=fixed;gradientColor=none;fillColor=none;" vertex="1" parent="1">
          <mxGeometry x="390" y="670" width="90" height="90" as="geometry" />
        </mxCell>
        <mxCell id="iyTL14flEjv7qD_78qFV-61" value="" style="ellipse;whiteSpace=wrap;html=1;aspect=fixed;gradientColor=none;fillColor=none;" vertex="1" parent="1">
          <mxGeometry x="200" y="1390" width="90" height="90" as="geometry" />
        </mxCell>
        <mxCell id="iyTL14flEjv7qD_78qFV-62" value="" style="ellipse;whiteSpace=wrap;html=1;aspect=fixed;gradientColor=none;fillColor=none;" vertex="1" parent="1">
          <mxGeometry x="200" y="1230" width="90" height="90" as="geometry" />
        </mxCell>
        <mxCell id="iyTL14flEjv7qD_78qFV-63" value="" style="ellipse;whiteSpace=wrap;html=1;aspect=fixed;gradientColor=none;fillColor=none;" vertex="1" parent="1">
          <mxGeometry x="200" y="1100" width="90" height="90" as="geometry" />
        </mxCell>
        <mxCell id="iyTL14flEjv7qD_78qFV-64" value="" style="ellipse;whiteSpace=wrap;html=1;aspect=fixed;gradientColor=none;fillColor=none;" vertex="1" parent="1">
          <mxGeometry x="200" y="950" width="90" height="90" as="geometry" />
        </mxCell>
        <mxCell id="iyTL14flEjv7qD_78qFV-65" value="" style="ellipse;whiteSpace=wrap;html=1;aspect=fixed;gradientColor=none;fillColor=none;" vertex="1" parent="1">
          <mxGeometry x="200" y="830" width="90" height="90" as="geometry" />
        </mxCell>
        <mxCell id="iyTL14flEjv7qD_78qFV-66" value="" style="ellipse;whiteSpace=wrap;html=1;aspect=fixed;gradientColor=none;fillColor=none;" vertex="1" parent="1">
          <mxGeometry x="520" y="1660" width="90" height="90" as="geometry" />
        </mxCell>
        <mxCell id="iyTL14flEjv7qD_78qFV-67" value="" style="ellipse;whiteSpace=wrap;html=1;aspect=fixed;gradientColor=none;fillColor=none;" vertex="1" parent="1">
          <mxGeometry x="520" y="1830" width="90" height="90" as="geometry" />
        </mxCell>
        <mxCell id="iyTL14flEjv7qD_78qFV-68" value="" style="ellipse;whiteSpace=wrap;html=1;aspect=fixed;gradientColor=none;fillColor=none;" vertex="1" parent="1">
          <mxGeometry x="200" y="1990" width="90" height="90" as="geometry" />
        </mxCell>
        <mxCell id="iyTL14flEjv7qD_78qFV-123" value="&amp;nbsp;/&amp;nbsp;" style="edgeStyle=none;rounded=0;orthogonalLoop=1;jettySize=auto;html=1;entryX=0;entryY=0.5;entryDx=0;entryDy=0;fontSize=22;" edge="1" parent="1" source="iyTL14flEjv7qD_78qFV-69" target="iyTL14flEjv7qD_78qFV-33">
          <mxGeometry relative="1" as="geometry" />
        </mxCell>
        <mxCell id="iyTL14flEjv7qD_78qFV-125" value="&amp;nbsp;*&amp;nbsp;" style="edgeStyle=none;rounded=0;orthogonalLoop=1;jettySize=auto;html=1;entryX=-0.029;entryY=0.603;entryDx=0;entryDy=0;entryPerimeter=0;fontSize=22;" edge="1" parent="1" source="iyTL14flEjv7qD_78qFV-69" target="iyTL14flEjv7qD_78qFV-37">
          <mxGeometry relative="1" as="geometry">
            <Array as="points">
              <mxPoint x="245" y="2382" />
            </Array>
          </mxGeometry>
        </mxCell>
        <mxCell id="iyTL14flEjv7qD_78qFV-69" value="" style="ellipse;whiteSpace=wrap;html=1;aspect=fixed;gradientColor=none;fillColor=none;" vertex="1" parent="1">
          <mxGeometry x="200" y="2150" width="90" height="90" as="geometry" />
        </mxCell>
        <mxCell id="iyTL14flEjv7qD_78qFV-70" value="" style="ellipse;whiteSpace=wrap;html=1;aspect=fixed;gradientColor=none;fillColor=none;" vertex="1" parent="1">
          <mxGeometry x="760" y="2150" width="90" height="90" as="geometry" />
        </mxCell>
        <mxCell id="iyTL14flEjv7qD_78qFV-71" value="" style="ellipse;whiteSpace=wrap;html=1;aspect=fixed;gradientColor=none;fillColor=none;" vertex="1" parent="1">
          <mxGeometry x="760" y="2330" width="90" height="90" as="geometry" />
        </mxCell>
        <mxCell id="iyTL14flEjv7qD_78qFV-72" value="" style="ellipse;whiteSpace=wrap;html=1;aspect=fixed;gradientColor=none;fillColor=none;" vertex="1" parent="1">
          <mxGeometry x="200" y="2750" width="90" height="90" as="geometry" />
        </mxCell>
        <mxCell id="iyTL14flEjv7qD_78qFV-73" value="" style="ellipse;whiteSpace=wrap;html=1;aspect=fixed;gradientColor=none;fillColor=none;" vertex="1" parent="1">
          <mxGeometry x="520" y="2530" width="90" height="90" as="geometry" />
        </mxCell>
        <mxCell id="iyTL14flEjv7qD_78qFV-130" value="&amp;nbsp;=&amp;nbsp;" style="edgeStyle=none;rounded=0;orthogonalLoop=1;jettySize=auto;html=1;entryX=0;entryY=0.5;entryDx=0;entryDy=0;fontSize=22;" edge="1" parent="1" source="iyTL14flEjv7qD_78qFV-74" target="iyTL14flEjv7qD_78qFV-75">
          <mxGeometry relative="1" as="geometry" />
        </mxCell>
        <mxCell id="iyTL14flEjv7qD_78qFV-74" value="" style="ellipse;whiteSpace=wrap;html=1;aspect=fixed;gradientColor=none;fillColor=none;" vertex="1" parent="1">
          <mxGeometry x="200" y="3110" width="90" height="90" as="geometry" />
        </mxCell>
        <mxCell id="iyTL14flEjv7qD_78qFV-75" value="" style="ellipse;whiteSpace=wrap;html=1;aspect=fixed;gradientColor=none;fillColor=none;" vertex="1" parent="1">
          <mxGeometry x="520" y="3110" width="90" height="90" as="geometry" />
        </mxCell>
        <mxCell id="iyTL14flEjv7qD_78qFV-76" value="" style="ellipse;whiteSpace=wrap;html=1;aspect=fixed;gradientColor=none;fillColor=none;" vertex="1" parent="1">
          <mxGeometry x="520" y="2930" width="90" height="90" as="geometry" />
        </mxCell>
        <mxCell id="iyTL14flEjv7qD_78qFV-129" value="&amp;nbsp;=&amp;nbsp;" style="edgeStyle=none;rounded=0;orthogonalLoop=1;jettySize=auto;html=1;entryX=0;entryY=0.5;entryDx=0;entryDy=0;fontSize=22;" edge="1" parent="1" source="iyTL14flEjv7qD_78qFV-77" target="iyTL14flEjv7qD_78qFV-76">
          <mxGeometry relative="1" as="geometry" />
        </mxCell>
        <mxCell id="iyTL14flEjv7qD_78qFV-77" value="" style="ellipse;whiteSpace=wrap;html=1;aspect=fixed;gradientColor=none;fillColor=none;" vertex="1" parent="1">
          <mxGeometry x="200" y="2930" width="90" height="90" as="geometry" />
        </mxCell>
        <mxCell id="iyTL14flEjv7qD_78qFV-131" value="&amp;nbsp;=&amp;nbsp;" style="edgeStyle=none;rounded=0;orthogonalLoop=1;jettySize=auto;html=1;entryX=-0.036;entryY=0.38;entryDx=0;entryDy=0;entryPerimeter=0;fontSize=22;" edge="1" parent="1" source="iyTL14flEjv7qD_78qFV-78" target="iyTL14flEjv7qD_78qFV-79">
          <mxGeometry relative="1" as="geometry" />
        </mxCell>
        <mxCell id="iyTL14flEjv7qD_78qFV-78" value="" style="ellipse;whiteSpace=wrap;html=1;aspect=fixed;gradientColor=none;fillColor=none;" vertex="1" parent="1">
          <mxGeometry x="200" y="3290" width="90" height="90" as="geometry" />
        </mxCell>
        <mxCell id="iyTL14flEjv7qD_78qFV-79" value="" style="ellipse;whiteSpace=wrap;html=1;aspect=fixed;gradientColor=none;fillColor=none;" vertex="1" parent="1">
          <mxGeometry x="520" y="3300" width="90" height="90" as="geometry" />
        </mxCell>
        <mxCell id="iyTL14flEjv7qD_78qFV-80" value="" style="ellipse;whiteSpace=wrap;html=1;aspect=fixed;gradientColor=none;fillColor=none;" vertex="1" parent="1">
          <mxGeometry x="520" y="3470" width="90" height="90" as="geometry" />
        </mxCell>
        <mxCell id="iyTL14flEjv7qD_78qFV-81" value="" style="ellipse;whiteSpace=wrap;html=1;aspect=fixed;gradientColor=none;fillColor=none;" vertex="1" parent="1">
          <mxGeometry x="200" y="3650" width="90" height="90" as="geometry" />
        </mxCell>
        <mxCell id="iyTL14flEjv7qD_78qFV-82" value="" style="ellipse;whiteSpace=wrap;html=1;aspect=fixed;gradientColor=none;fillColor=none;" vertex="1" parent="1">
          <mxGeometry x="190" y="3830" width="90" height="90" as="geometry" />
        </mxCell>
        <mxCell id="iyTL14flEjv7qD_78qFV-86" value="letter" style="endArrow=classic;html=1;fontSize=22;entryX=0;entryY=0.5;entryDx=0;entryDy=0;" edge="1" parent="1" target="iyTL14flEjv7qD_78qFV-22">
          <mxGeometry x="0.9009" width="50" height="50" relative="1" as="geometry">
            <mxPoint x="40" y="1510" as="sourcePoint" />
            <mxPoint x="90" y="1460" as="targetPoint" />
            <Array as="points">
              <mxPoint x="40" y="55" />
            </Array>
            <mxPoint as="offset" />
          </mxGeometry>
        </mxCell>
        <mxCell id="iyTL14flEjv7qD_78qFV-87" value="\n , \t , space" style="endArrow=classic;html=1;fontSize=22;" edge="1" parent="1">
          <mxGeometry x="0.8197" y="30" width="50" height="50" relative="1" as="geometry">
            <mxPoint x="40" y="1580" as="sourcePoint" />
            <mxPoint x="189" y="3882" as="targetPoint" />
            <Array as="points">
              <mxPoint x="40" y="3882" />
            </Array>
            <mxPoint as="offset" />
          </mxGeometry>
        </mxCell>
        <mxCell id="iyTL14flEjv7qD_78qFV-90" value="&amp;nbsp;+&amp;nbsp;" style="endArrow=classic;html=1;fontSize=22;entryX=0.009;entryY=0.433;entryDx=0;entryDy=0;entryPerimeter=0;" edge="1" parent="1" target="iyTL14flEjv7qD_78qFV-25">
          <mxGeometry width="50" height="50" relative="1" as="geometry">
            <mxPoint x="40" y="259" as="sourcePoint" />
            <mxPoint x="80" y="310" as="targetPoint" />
          </mxGeometry>
        </mxCell>
        <mxCell id="iyTL14flEjv7qD_78qFV-91" value="&amp;nbsp;-&amp;nbsp;" style="endArrow=classic;html=1;fontSize=22;entryX=0.009;entryY=0.433;entryDx=0;entryDy=0;entryPerimeter=0;" edge="1" parent="1">
          <mxGeometry width="50" height="50" relative="1" as="geometry">
            <mxPoint x="39.19" y="574.53" as="sourcePoint" />
            <mxPoint x="199.99999999999994" y="574.5" as="targetPoint" />
          </mxGeometry>
        </mxCell>
        <mxCell id="iyTL14flEjv7qD_78qFV-92" value="&amp;nbsp;(&amp;nbsp;" style="endArrow=classic;html=1;fontSize=22;entryX=0.009;entryY=0.433;entryDx=0;entryDy=0;entryPerimeter=0;" edge="1" parent="1">
          <mxGeometry width="50" height="50" relative="1" as="geometry">
            <mxPoint x="39.190000000000055" y="880.03" as="sourcePoint" />
            <mxPoint x="200" y="880" as="targetPoint" />
          </mxGeometry>
        </mxCell>
        <mxCell id="iyTL14flEjv7qD_78qFV-93" value="&amp;nbsp;)&amp;nbsp;" style="endArrow=classic;html=1;fontSize=22;entryX=0.009;entryY=0.433;entryDx=0;entryDy=0;entryPerimeter=0;" edge="1" parent="1">
          <mxGeometry width="50" height="50" relative="1" as="geometry">
            <mxPoint x="39.19" y="1000.03" as="sourcePoint" />
            <mxPoint x="199.99999999999994" y="1000" as="targetPoint" />
          </mxGeometry>
        </mxCell>
        <mxCell id="iyTL14flEjv7qD_78qFV-94" value="&amp;nbsp;;&amp;nbsp;" style="endArrow=classic;html=1;fontSize=22;entryX=0.009;entryY=0.433;entryDx=0;entryDy=0;entryPerimeter=0;" edge="1" parent="1">
          <mxGeometry width="50" height="50" relative="1" as="geometry">
            <mxPoint x="39.19" y="1144.53" as="sourcePoint" />
            <mxPoint x="199.99999999999994" y="1144.5" as="targetPoint" />
          </mxGeometry>
        </mxCell>
        <mxCell id="iyTL14flEjv7qD_78qFV-95" value="&amp;nbsp;{&amp;nbsp;" style="endArrow=classic;html=1;fontSize=22;entryX=0.009;entryY=0.433;entryDx=0;entryDy=0;entryPerimeter=0;" edge="1" parent="1">
          <mxGeometry width="50" height="50" relative="1" as="geometry">
            <mxPoint x="39.19" y="1274.53" as="sourcePoint" />
            <mxPoint x="199.99999999999994" y="1274.5" as="targetPoint" />
          </mxGeometry>
        </mxCell>
        <mxCell id="iyTL14flEjv7qD_78qFV-96" value="&amp;nbsp;}&amp;nbsp;" style="endArrow=classic;html=1;fontSize=22;entryX=0.009;entryY=0.433;entryDx=0;entryDy=0;entryPerimeter=0;" edge="1" parent="1">
          <mxGeometry width="50" height="50" relative="1" as="geometry">
            <mxPoint x="39.19" y="1434.53" as="sourcePoint" />
            <mxPoint x="199.99999999999994" y="1434.5" as="targetPoint" />
          </mxGeometry>
        </mxCell>
        <mxCell id="iyTL14flEjv7qD_78qFV-97" value="&amp;nbsp;%&amp;nbsp;" style="endArrow=classic;html=1;fontSize=22;entryX=0.009;entryY=0.433;entryDx=0;entryDy=0;entryPerimeter=0;" edge="1" parent="1">
          <mxGeometry width="50" height="50" relative="1" as="geometry">
            <mxPoint x="39.19" y="2040.0299999999997" as="sourcePoint" />
            <mxPoint x="199.99999999999994" y="2040" as="targetPoint" />
          </mxGeometry>
        </mxCell>
        <mxCell id="iyTL14flEjv7qD_78qFV-98" value="&amp;nbsp;/&amp;nbsp;" style="endArrow=classic;html=1;fontSize=22;entryX=0.009;entryY=0.433;entryDx=0;entryDy=0;entryPerimeter=0;" edge="1" parent="1">
          <mxGeometry width="50" height="50" relative="1" as="geometry">
            <mxPoint x="39.19" y="2199.0299999999997" as="sourcePoint" />
            <mxPoint x="199.99999999999994" y="2199" as="targetPoint" />
          </mxGeometry>
        </mxCell>
        <mxCell id="iyTL14flEjv7qD_78qFV-99" value="&amp;nbsp;*&amp;nbsp;" style="endArrow=classic;html=1;fontSize=22;entryX=0.009;entryY=0.433;entryDx=0;entryDy=0;entryPerimeter=0;" edge="1" parent="1">
          <mxGeometry width="50" height="50" relative="1" as="geometry">
            <mxPoint x="39.19" y="2800.0299999999997" as="sourcePoint" />
            <mxPoint x="199.99999999999994" y="2800" as="targetPoint" />
          </mxGeometry>
        </mxCell>
        <mxCell id="iyTL14flEjv7qD_78qFV-100" value="&amp;nbsp;=&amp;nbsp;" style="endArrow=classic;html=1;fontSize=22;entryX=0.009;entryY=0.433;entryDx=0;entryDy=0;entryPerimeter=0;" edge="1" parent="1">
          <mxGeometry width="50" height="50" relative="1" as="geometry">
            <mxPoint x="39.19" y="2980.0299999999997" as="sourcePoint" />
            <mxPoint x="199.99999999999994" y="2980" as="targetPoint" />
          </mxGeometry>
        </mxCell>
        <mxCell id="iyTL14flEjv7qD_78qFV-101" value="&amp;nbsp;&amp;lt;&amp;nbsp;" style="endArrow=classic;html=1;fontSize=22;entryX=0.009;entryY=0.433;entryDx=0;entryDy=0;entryPerimeter=0;" edge="1" parent="1">
          <mxGeometry width="50" height="50" relative="1" as="geometry">
            <mxPoint x="39.19" y="3160.0299999999997" as="sourcePoint" />
            <mxPoint x="199.99999999999994" y="3160" as="targetPoint" />
          </mxGeometry>
        </mxCell>
        <mxCell id="iyTL14flEjv7qD_78qFV-102" value="&amp;nbsp;&amp;gt;&amp;nbsp;" style="endArrow=classic;html=1;fontSize=22;entryX=0.009;entryY=0.433;entryDx=0;entryDy=0;entryPerimeter=0;" edge="1" parent="1">
          <mxGeometry width="50" height="50" relative="1" as="geometry">
            <mxPoint x="39.19" y="3334.5299999999997" as="sourcePoint" />
            <mxPoint x="199.99999999999994" y="3334.5" as="targetPoint" />
          </mxGeometry>
        </mxCell>
        <mxCell id="iyTL14flEjv7qD_78qFV-103" value="&amp;nbsp;$&amp;nbsp;" style="endArrow=classic;html=1;fontSize=22;entryX=0.009;entryY=0.433;entryDx=0;entryDy=0;entryPerimeter=0;" edge="1" parent="1">
          <mxGeometry width="50" height="50" relative="1" as="geometry">
            <mxPoint x="39.19" y="3700.0299999999997" as="sourcePoint" />
            <mxPoint x="199.99999999999994" y="3700" as="targetPoint" />
          </mxGeometry>
        </mxCell>
        <mxCell id="iyTL14flEjv7qD_78qFV-104" value="&amp;nbsp;!&amp;nbsp;" style="endArrow=classic;html=1;fontSize=22;entryX=0.009;entryY=0.433;entryDx=0;entryDy=0;entryPerimeter=0;" edge="1" parent="1">
          <mxGeometry width="50" height="50" relative="1" as="geometry">
            <mxPoint x="39.19" y="3514.5299999999997" as="sourcePoint" />
            <mxPoint x="199.99999999999994" y="3514.5" as="targetPoint" />
          </mxGeometry>
        </mxCell>
        <mxCell id="iyTL14flEjv7qD_78qFV-105" value="&amp;nbsp;&quot;&amp;nbsp;" style="endArrow=classic;html=1;fontSize=22;entryX=0.009;entryY=0.433;entryDx=0;entryDy=0;entryPerimeter=0;" edge="1" parent="1">
          <mxGeometry width="50" height="50" relative="1" as="geometry">
            <mxPoint x="39.19" y="2580.0299999999997" as="sourcePoint" />
            <mxPoint x="199.99999999999994" y="2580" as="targetPoint" />
          </mxGeometry>
        </mxCell>
        <mxCell id="iyTL14flEjv7qD_78qFV-106" value="&amp;nbsp;&amp;amp;&amp;nbsp;" style="endArrow=classic;html=1;fontSize=22;entryX=0.009;entryY=0.433;entryDx=0;entryDy=0;entryPerimeter=0;" edge="1" parent="1">
          <mxGeometry width="50" height="50" relative="1" as="geometry">
            <mxPoint x="39.19" y="1704.53" as="sourcePoint" />
            <mxPoint x="199.99999999999994" y="1704.5" as="targetPoint" />
          </mxGeometry>
        </mxCell>
        <mxCell id="iyTL14flEjv7qD_78qFV-107" value="&amp;nbsp; |&amp;nbsp;&amp;nbsp;" style="endArrow=classic;html=1;fontSize=22;entryX=0.009;entryY=0.433;entryDx=0;entryDy=0;entryPerimeter=0;" edge="1" parent="1">
          <mxGeometry width="50" height="50" relative="1" as="geometry">
            <mxPoint x="39.19" y="1874.53" as="sourcePoint" />
            <mxPoint x="199.99999999999994" y="1874.5" as="targetPoint" />
          </mxGeometry>
        </mxCell>
        <mxCell id="iyTL14flEjv7qD_78qFV-110" value="&amp;nbsp;+&amp;nbsp;" style="endArrow=classic;html=1;fontSize=22;entryX=-0.031;entryY=0.433;entryDx=0;entryDy=0;entryPerimeter=0;" edge="1" parent="1" target="iyTL14flEjv7qD_78qFV-24">
          <mxGeometry width="50" height="50" relative="1" as="geometry">
            <mxPoint x="240" y="220" as="sourcePoint" />
            <mxPoint x="290" y="170" as="targetPoint" />
            <Array as="points">
              <mxPoint x="240" y="159" />
            </Array>
          </mxGeometry>
        </mxCell>
        <mxCell id="iyTL14flEjv7qD_78qFV-111" value="digit" style="endArrow=classic;html=1;fontSize=22;entryX=0.5;entryY=0;entryDx=0;entryDy=0;" edge="1" parent="1" target="iyTL14flEjv7qD_78qFV-26">
          <mxGeometry width="50" height="50" relative="1" as="geometry">
            <mxPoint x="290" y="260" as="sourcePoint" />
            <mxPoint x="435" y="360" as="targetPoint" />
            <Array as="points">
              <mxPoint x="435" y="260" />
            </Array>
          </mxGeometry>
        </mxCell>
        <mxCell id="iyTL14flEjv7qD_78qFV-112" value="" style="endArrow=classic;html=1;fontSize=22;exitX=1;exitY=0.5;exitDx=0;exitDy=0;entryX=0.5;entryY=1;entryDx=0;entryDy=0;" edge="1" parent="1" source="iyTL14flEjv7qD_78qFV-58" target="iyTL14flEjv7qD_78qFV-26">
          <mxGeometry width="50" height="50" relative="1" as="geometry">
            <mxPoint x="380" y="410" as="sourcePoint" />
            <mxPoint x="430" y="360" as="targetPoint" />
            <Array as="points">
              <mxPoint x="435" y="575" />
            </Array>
          </mxGeometry>
        </mxCell>
        <mxCell id="iyTL14flEjv7qD_78qFV-134" value="digit" style="edgeLabel;html=1;align=center;verticalAlign=middle;resizable=0;points=[];fontSize=22;" vertex="1" connectable="0" parent="iyTL14flEjv7qD_78qFV-112">
          <mxGeometry x="0.0062" y="-1" relative="1" as="geometry">
            <mxPoint as="offset" />
          </mxGeometry>
        </mxCell>
        <mxCell id="iyTL14flEjv7qD_78qFV-118" value="&amp;nbsp;digit&amp;nbsp;" style="endArrow=classic;html=1;fontSize=22;entryX=-0.004;entryY=0.58;entryDx=0;entryDy=0;entryPerimeter=0;" edge="1" parent="1" target="iyTL14flEjv7qD_78qFV-26">
          <mxGeometry width="50" height="50" relative="1" as="geometry">
            <mxPoint x="40" y="420" as="sourcePoint" />
            <mxPoint x="90" y="380" as="targetPoint" />
          </mxGeometry>
        </mxCell>
        <mxCell id="iyTL14flEjv7qD_78qFV-144" style="edgeStyle=none;rounded=0;orthogonalLoop=1;jettySize=auto;html=1;exitX=0;exitY=0.75;exitDx=0;exitDy=0;fontSize=22;" edge="1" parent="1" source="iyTL14flEjv7qD_78qFV-143" target="iyTL14flEjv7qD_78qFV-22">
          <mxGeometry relative="1" as="geometry" />
        </mxCell>
        <mxCell id="iyTL14flEjv7qD_78qFV-143" value="" style="shape=image;html=1;verticalAlign=top;verticalLabelPosition=bottom;labelBackgroundColor=#ffffff;imageAspect=0;aspect=fixed;image=https://cdn2.iconfinder.com/data/icons/navigation-set-arrows-part-two/32/Arrow_Back_Left-128.png;fontSize=22;fillColor=none;gradientColor=none;" vertex="1" parent="1">
          <mxGeometry x="290" y="40" width="50" height="50" as="geometry" />
        </mxCell>
        <mxCell id="iyTL14flEjv7qD_78qFV-147" value="letter + digit" style="text;html=1;align=center;verticalAlign=middle;resizable=0;points=[];autosize=1;strokeColor=none;fontSize=22;" vertex="1" parent="1">
          <mxGeometry x="340" y="40" width="130" height="30" as="geometry" />
        </mxCell>
        <mxCell id="iyTL14flEjv7qD_78qFV-149" value="" style="shape=image;html=1;verticalAlign=top;verticalLabelPosition=bottom;labelBackgroundColor=#ffffff;imageAspect=0;aspect=fixed;image=https://cdn2.iconfinder.com/data/icons/navigation-set-arrows-part-two/32/Arrow_Back_Down-128.png;fontSize=22;fillColor=none;gradientColor=none;rotation=30;" vertex="1" parent="1">
          <mxGeometry x="450" y="340" width="48" height="48" as="geometry" />
        </mxCell>
        <mxCell id="iyTL14flEjv7qD_78qFV-150" value="digit" style="text;html=1;align=center;verticalAlign=middle;resizable=0;points=[];autosize=1;strokeColor=none;fontSize=22;" vertex="1" parent="1">
          <mxGeometry x="470" y="320" width="60" height="30" as="geometry" />
        </mxCell>
        <mxCell id="iyTL14flEjv7qD_78qFV-152" value="" style="shape=image;html=1;verticalAlign=top;verticalLabelPosition=bottom;labelBackgroundColor=#ffffff;imageAspect=0;aspect=fixed;image=https://cdn2.iconfinder.com/data/icons/navigation-set-arrows-part-two/32/Arrow_Back_Down-128.png;fontSize=22;fillColor=none;gradientColor=none;rotation=0;" vertex="1" parent="1">
          <mxGeometry x="790" y="322" width="50" height="50" as="geometry" />
        </mxCell>
        <mxCell id="iyTL14flEjv7qD_78qFV-155" value="digit" style="text;html=1;align=center;verticalAlign=middle;resizable=0;points=[];autosize=1;strokeColor=none;fontSize=22;" vertex="1" parent="1">
          <mxGeometry x="790" y="292" width="60" height="30" as="geometry" />
        </mxCell>
        <mxCell id="iyTL14flEjv7qD_78qFV-157" value="" style="shape=image;html=1;verticalAlign=top;verticalLabelPosition=bottom;labelBackgroundColor=#ffffff;imageAspect=0;aspect=fixed;image=https://cdn2.iconfinder.com/data/icons/navigation-set-arrows-part-two/32/Arrow_Back_Down-128.png;fontSize=22;fillColor=none;gradientColor=none;rotation=0;" vertex="1" parent="1">
          <mxGeometry x="541" y="2120" width="48" height="48" as="geometry" />
        </mxCell>
        <mxCell id="iyTL14flEjv7qD_78qFV-159" value="&lt;span style=&quot;background-color: rgb(255 , 255 , 255)&quot;&gt;&amp;nbsp;E - {\n }&amp;nbsp;&lt;/span&gt;" style="text;html=1;align=center;verticalAlign=middle;resizable=0;points=[];autosize=1;strokeColor=none;fontSize=22;fontColor=#000000;" vertex="1" parent="1">
          <mxGeometry x="510" y="2090" width="100" height="30" as="geometry" />
        </mxCell>
        <mxCell id="iyTL14flEjv7qD_78qFV-160" value="" style="shape=image;html=1;verticalAlign=top;verticalLabelPosition=bottom;labelBackgroundColor=#ffffff;imageAspect=0;aspect=fixed;image=https://cdn2.iconfinder.com/data/icons/navigation-set-arrows-part-two/32/Arrow_Back_Down-128.png;fontSize=22;fillColor=none;gradientColor=none;rotation=0;" vertex="1" parent="1">
          <mxGeometry x="321" y="2300" width="48" height="48" as="geometry" />
        </mxCell>
        <mxCell id="iyTL14flEjv7qD_78qFV-161" value="" style="shape=image;html=1;verticalAlign=top;verticalLabelPosition=bottom;labelBackgroundColor=#ffffff;imageAspect=0;aspect=fixed;image=https://cdn2.iconfinder.com/data/icons/navigation-set-arrows-part-two/32/Arrow_Back_Down-128.png;fontSize=22;fillColor=none;gradientColor=none;rotation=0;" vertex="1" parent="1">
          <mxGeometry x="541" y="2300" width="48" height="48" as="geometry" />
        </mxCell>
        <mxCell id="iyTL14flEjv7qD_78qFV-162" value="&lt;span style=&quot;background-color: rgb(255 , 255 , 255)&quot;&gt;&amp;nbsp;E - { * }&amp;nbsp;&lt;/span&gt;" style="text;html=1;align=center;verticalAlign=middle;resizable=0;points=[];autosize=1;strokeColor=none;fontSize=22;fontColor=#000000;" vertex="1" parent="1">
          <mxGeometry x="290" y="2270" width="100" height="30" as="geometry" />
        </mxCell>
        <mxCell id="iyTL14flEjv7qD_78qFV-163" value="&amp;nbsp;*&amp;nbsp;" style="text;html=1;align=center;verticalAlign=middle;resizable=0;points=[];autosize=1;strokeColor=none;fontSize=22;fontColor=#000000;" vertex="1" parent="1">
          <mxGeometry x="545" y="2270" width="40" height="30" as="geometry" />
        </mxCell>
        <mxCell id="iyTL14flEjv7qD_78qFV-164" value="" style="shape=image;html=1;verticalAlign=top;verticalLabelPosition=bottom;labelBackgroundColor=#ffffff;imageAspect=0;aspect=fixed;image=https://cdn2.iconfinder.com/data/icons/navigation-set-arrows-part-two/32/Arrow_Back_Down-128.png;fontSize=22;fillColor=none;gradientColor=none;rotation=0;" vertex="1" parent="1">
          <mxGeometry x="211" y="2500" width="48" height="48" as="geometry" />
        </mxCell>
        <mxCell id="iyTL14flEjv7qD_78qFV-165" value="&lt;span style=&quot;background-color: rgb(255 , 255 , 255)&quot;&gt;&amp;nbsp;E - { &quot; }&amp;nbsp;&lt;/span&gt;" style="text;html=1;align=center;verticalAlign=middle;resizable=0;points=[];autosize=1;strokeColor=none;fontSize=22;fontColor=#000000;" vertex="1" parent="1">
          <mxGeometry x="180" y="2470" width="100" height="30" as="geometry" />
        </mxCell>
      </root>
    </mxGraphModel>
  </diagram>
</mxfile>
